<svg xmlns="http://www.w3.org/2000/svg" xmlns:xlink="http://www.w3.org/1999/xlink"  viewBox="0 0 34 35" ><path  style="fill:white" d="M14.05 5.82h-4v-4A1.82 1.82 0 008.24 0H7.63A1.81 1.81 0 005.82 1.82v4h-4A1.81 1.81 0 000 7.63v.61a1.82 1.82 0 001.82 1.82h4v4a1.81 1.81 0 001.81 1.82h.61a1.82 1.82 0 001.82-1.82v-4h4a1.82 1.82 0 001.82-1.82V7.63A1.81 1.81 0 0014.05 5.82zM29.38 7.94l2.83-2.83a1.82 1.82 0 000-2.57l-.43-.43a1.82 1.82 0 00-2.57 0L26.38 4.94 23.55 2.11a1.82 1.82 0 00-2.57 0l-.42.43a1.82 1.82 0 000 2.57l2.82 2.83-2.82 2.82a1.82 1.82 0 000 2.57l.42.43a1.82 1.82 0 002.57 0l2.83-2.83 2.83 2.83a1.82 1.82 0 002.57 0l.43-.43a1.82 1.82 0 000-2.57z"></path><rect style="fill:white" width="4.24" height="15.87" x="5.82" y="20.54" rx="2.12" transform="rotate(90 7.935 28.475)"></rect><rect style="fill:white" width="4.24" height="15.87" x="23.72" y="22.63" rx="2.12" transform="rotate(90 25.84 30.56)"></rect><rect style="fill:white" width="4.24" height="15.87" x="23.72" y="15.54" rx="2.12" transform="rotate(90 25.835 23.475)"></rect></svg>