<svg width="54" height="54" viewBox="0 0 54 54" fill="none" xmlns="http://www.w3.org/2000/svg">
<rect width="54" height="54" rx="11" fill="#583A7A"/>
<path d="M24.0114 15.6767H19.9569V11.6223C19.9569 11.1347 19.7639 10.667 19.4202 10.3214C19.0764 9.97569 18.6098 9.78014 18.1222 9.77747H17.5039C17.2621 9.77746 17.0227 9.82525 16.7995 9.91808C16.5762 10.0109 16.3735 10.147 16.203 10.3184C16.0325 10.4898 15.8976 10.6933 15.806 10.917C15.7144 11.1408 15.6679 11.3805 15.6693 11.6223V15.6767H11.6148C11.373 15.6754 11.1334 15.7219 10.9096 15.8135C10.6858 15.9051 10.4824 16.04 10.311 16.2105C10.1395 16.381 10.0035 16.5837 9.91064 16.8069C9.8178 17.0302 9.77002 17.2696 9.77002 17.5114V18.1297C9.77002 18.619 9.96438 19.0882 10.3103 19.4341C10.6563 19.7801 11.1255 19.9745 11.6148 19.9745H15.6693V24.029C15.6679 24.2707 15.7144 24.5104 15.806 24.7342C15.8976 24.9579 16.0325 25.1614 16.203 25.3328C16.3735 25.5042 16.5762 25.6403 16.7995 25.7331C17.0227 25.826 17.2621 25.8737 17.5039 25.8737H18.1222C18.6115 25.8737 19.0807 25.6794 19.4267 25.3334C19.7727 24.9874 19.967 24.5182 19.967 24.029V19.9745H24.0215C24.5108 19.9745 24.98 19.7801 25.326 19.4341C25.6719 19.0882 25.8663 18.619 25.8663 18.1297V17.5114C25.8663 17.2687 25.8182 17.0285 25.7247 16.8046C25.6313 16.5807 25.4943 16.3775 25.3218 16.2069C25.1493 16.0362 24.9446 15.9015 24.7197 15.8105C24.4948 15.7195 24.254 15.674 24.0114 15.6767ZM39.5501 17.8256L42.4187 14.9571C42.7635 14.6113 42.9571 14.1429 42.9571 13.6546C42.9571 13.1663 42.7635 12.6979 42.4187 12.3521L41.9828 11.9162C41.637 11.5714 41.1686 11.3778 40.6803 11.3778C40.192 11.3778 39.7236 11.5714 39.3778 11.9162L36.5093 14.7847L33.6408 11.9162C33.2949 11.5714 32.8266 11.3778 32.3382 11.3778C31.8499 11.3778 31.3816 11.5714 31.0357 11.9162L30.61 12.3521C30.2653 12.6979 30.0717 13.1663 30.0717 13.6546C30.0717 14.1429 30.2653 14.6113 30.61 14.9571L33.4684 17.8256L30.61 20.684C30.2653 21.0298 30.0717 21.4982 30.0717 21.9865C30.0717 22.4748 30.2653 22.9432 30.61 23.289L31.0357 23.7249C31.3816 24.0696 31.8499 24.2632 32.3382 24.2632C32.8266 24.2632 33.2949 24.0696 33.6408 23.7249L36.5093 20.8563L39.3778 23.7249C39.7236 24.0696 40.192 24.2632 40.6803 24.2632C41.1686 24.2632 41.637 24.0696 41.9828 23.7249L42.4187 23.289C42.7635 22.9432 42.9571 22.4748 42.9571 21.9865C42.9571 21.4982 42.7635 21.0298 42.4187 20.684L39.5501 17.8256Z" fill="white"/>
<path d="M23.7073 40.7942C24.8941 40.7942 25.8561 39.8321 25.8561 38.6453C25.8561 37.4585 24.8941 36.4965 23.7073 36.4965H11.9189C10.7321 36.4965 9.77 37.4585 9.77 38.6453C9.77 39.8321 10.7321 40.7942 11.9189 40.7942H23.7073Z" fill="white"/>
<path d="M41.8511 42.9025C43.0379 42.9025 44 41.9405 44 40.7537C44 39.5669 43.0379 38.6048 41.8511 38.6048H30.0627C28.8759 38.6048 27.9139 39.5669 27.9139 40.7537C27.9139 41.9405 28.8759 42.9025 30.0627 42.9025H41.8511Z" fill="white"/>
<path d="M41.8511 35.7261C43.0379 35.7261 44 34.764 44 33.5772C44 32.3905 43.0379 31.4284 41.8511 31.4284H30.0627C28.8759 31.4284 27.9139 32.3905 27.9139 33.5772C27.9139 34.764 28.8759 35.7261 30.0627 35.7261H41.8511Z" fill="white"/>
</svg>
